<svg width="375" height="780" viewBox="0 0 375 780" fill="none" xmlns="http://www.w3.org/2000/svg">
<path fill-rule="evenodd" clip-rule="evenodd" d="M63.5 6.50001C45.8775 28.2833 45.3282 53.9231 50.3054 74.7823C-103.076 133.437 -212 281.998 -212 456C-212 681.332 -29.3322 864 196 864C421.332 864 604 681.332 604 456C604 277.65 489.564 126.027 330.112 70.5539C334.023 50.5253 332.449 26.8327 316 6.50001C313.167 3.16667 306.6 -0.399994 303 12C299.495 22.5155 290.71 40.9509 277.033 56.0468C250.843 50.7694 223.745 48 196 48C164.562 48 133.954 51.5557 104.558 58.2869C89.683 42.8162 80.1806 23.0418 76.5 12C72.9 -0.399994 66.3333 3.16667 63.5 6.50001Z" fill="#F64A00"/>
<path d="M50.3054 74.7823L51.377 77.5844L53.8341 76.6447L53.2235 74.086L50.3054 74.7823ZM63.5 6.50001L61.2142 4.55707L61.1906 4.58483L61.1677 4.61316L63.5 6.50001ZM330.112 70.5539L327.168 69.979L326.669 72.5325L329.126 73.3873L330.112 70.5539ZM316 6.50001L318.332 4.61316L318.309 4.58483L318.286 4.55707L316 6.50001ZM303 12L305.846 12.9487L305.865 12.8929L305.881 12.8364L303 12ZM277.033 56.0468L276.44 58.9877L278.111 59.3244L279.256 58.061L277.033 56.0468ZM104.558 58.2869L102.395 60.3662L103.572 61.5903L105.227 61.2112L104.558 58.2869ZM76.5 12L73.619 12.8364L73.6354 12.8929L73.654 12.9487L76.5 12ZM53.2235 74.086C48.3756 53.769 48.9956 29.1989 65.8323 8.38685L61.1677 4.61316C42.7594 27.3678 42.2807 54.0772 47.3873 75.4785L53.2235 74.086ZM-209 456C-209 283.282 -100.882 135.81 51.377 77.5844L49.2339 71.9802C-105.271 131.064 -215 280.714 -215 456H-209ZM196 861C-27.6753 861 -209 679.675 -209 456H-215C-215 682.989 -30.989 867 196 867V861ZM601 456C601 679.675 419.675 861 196 861V867C422.989 867 607 682.989 607 456H601ZM329.126 73.3873C487.409 128.454 601 278.966 601 456H607C607 276.333 491.718 123.6 331.098 67.7205L329.126 73.3873ZM313.668 8.38685C329.387 27.8172 330.969 50.5113 327.168 69.979L333.056 71.1288C337.077 50.5393 335.511 25.8482 318.332 4.61316L313.668 8.38685ZM305.881 12.8364C307.592 6.94397 309.559 6.38717 310.082 6.33547C311.027 6.24216 312.495 7.00891 313.714 8.44294L318.286 4.55707C316.671 2.65777 313.44 -0.0254778 309.493 0.364544C305.124 0.796172 302.008 4.65604 300.119 11.1636L305.881 12.8364ZM279.256 58.061C293.268 42.5956 302.238 23.7717 305.846 12.9487L300.154 11.0513C296.751 21.2593 288.152 39.3062 274.81 54.0325L279.256 58.061ZM196 51C223.545 51 250.444 53.7494 276.44 58.9877L277.625 53.1059C251.242 47.7894 223.945 45 196 45V51ZM105.227 61.2112C134.406 54.53 164.789 51 196 51V45C164.335 45 133.503 48.5815 103.888 55.3626L105.227 61.2112ZM73.654 12.9487C77.4388 24.3031 87.1398 44.4996 102.395 60.3662L106.72 56.2077C92.2261 41.1328 82.9224 21.7805 79.346 11.0513L73.654 12.9487ZM65.7858 8.44294C67.0048 7.0089 68.4731 6.24216 69.4175 6.33547C69.9408 6.38717 71.9082 6.94397 73.619 12.8364L79.381 11.1636C77.4918 4.65604 74.3759 0.796173 70.0075 0.364544C66.0602 -0.0254783 62.8286 2.65778 61.2142 4.55707L65.7858 8.44294Z" fill="#121212"/>
<circle cx="128" cy="158.5" r="34" fill="white" stroke="#121212" stroke-width="6"/>
<circle cx="140" cy="160.5" r="15" fill="#121212"/>
<circle cx="256.5" cy="158.5" r="34" fill="white" stroke="#121212" stroke-width="6"/>
<ellipse cx="245.5" cy="160.5" rx="15.5" ry="15" fill="#121212"/>
<path d="M218 129.5C234.667 129.5 270.5 123.8 280.5 101" stroke="#121212" stroke-width="10" stroke-linecap="round"/>
<path d="M164.5 129.5C147.833 129.5 112 123.8 102 101" stroke="#121212" stroke-width="10" stroke-linecap="round"/>
</svg>
