<svg width="327" height="265" viewBox="0 0 327 265" fill="none" xmlns="http://www.w3.org/2000/svg">
<circle cx="320" cy="131" r="6" fill="#F64A00" stroke="white" stroke-width="2"/>
<circle cx="205" cy="7" r="6" fill="#FF7F49" stroke="white" stroke-width="2"/>
<circle cx="21.5" cy="94.5" r="6.5" fill="#02B36F" stroke="white" stroke-width="2"/>
<circle cx="161" cy="253" r="11" fill="#00663F" stroke="white" stroke-width="2"/>
<path fill-rule="evenodd" clip-rule="evenodd" d="M297.469 130.618C303.539 119.788 307 107.298 307 94C307 52.5786 273.421 19 232 19C221.433 19 211.376 21.1854 202.257 25.129C200.079 21.4596 196.077 19 191.5 19C184.596 19 179 24.5964 179 31.5C179 34.194 179.852 36.689 181.302 38.7301C166.364 52.4397 157 72.1263 157 94C157 103.488 158.762 112.564 161.976 120.92C154.741 128.471 148.863 130.671 132.429 133.476C118.713 118.437 98.9585 109 77 109C74.9371 109 72.8936 109.083 70.8728 109.247C70.0243 103.45 65.0318 99 59 99C52.3726 99 47 104.373 47 111C47 112.385 47.2347 113.715 47.6664 114.953C20.8224 126.372 2 152.988 2 184C2 196.444 5.03043 208.179 10.3935 218.51C5.94755 221.352 3 226.332 3 232C3 240.837 10.1634 248 19 248C23.5919 248 27.732 246.066 30.6499 242.967C43.4078 253.009 59.5043 259 77 259C108.144 259 134.854 240.017 146.192 212.99C149.028 214.281 152.18 215 155.5 215C162.944 215 169.543 211.385 173.639 205.815C174.83 207.156 176.566 208 178.5 208C182.09 208 185 205.09 185 201.5C185 197.91 182.09 195 178.5 195C178.284 195 178.07 195.011 177.859 195.031C177.952 194.2 178 193.356 178 192.5C178 180.074 167.926 170 155.5 170C153.884 170 152.307 170.17 150.787 170.494C150.345 168.061 149.785 165.668 149.113 163.322C157.176 155.117 168.187 149.442 177.62 145.652C191.285 160.033 210.595 169 232 169C241.781 169 251.124 167.128 259.691 163.722C264.164 171.083 272.258 176 281.5 176C295.583 176 307 164.583 307 150.5C307 142.462 303.28 135.292 297.469 130.618Z" fill="url(#paint0_linear_76_1291)"/>
<path d="M297.469 130.618L296.16 129.884L295.54 130.991L296.529 131.787L297.469 130.618ZM202.257 25.129L200.967 25.8946L201.641 27.0297L202.852 26.5058L202.257 25.129ZM181.302 38.7301L182.316 39.8352L183.291 38.9404L182.525 37.8615L181.302 38.7301ZM161.976 120.92L163.059 121.958L163.718 121.27L163.376 120.381L161.976 120.92ZM132.429 133.476L131.321 134.487L131.873 135.093L132.682 134.955L132.429 133.476ZM70.8728 109.247L69.3886 109.464L69.5923 110.855L70.9937 110.742L70.8728 109.247ZM47.6664 114.953L48.2536 116.334L49.5449 115.784L49.0828 114.459L47.6664 114.953ZM10.3935 218.51L11.2015 219.773L12.3564 219.035L11.7248 217.818L10.3935 218.51ZM30.6499 242.967L31.5776 241.789L30.499 240.94L29.5579 241.939L30.6499 242.967ZM146.192 212.99L146.813 211.625L145.406 210.985L144.808 212.41L146.192 212.99ZM173.639 205.815L174.76 204.819L173.529 203.433L172.43 204.927L173.639 205.815ZM177.859 195.031L176.369 194.864L176.163 196.704L178.005 196.524L177.859 195.031ZM150.787 170.494L149.311 170.763L149.588 172.284L151.1 171.961L150.787 170.494ZM149.113 163.322L148.043 162.27L147.431 162.894L147.671 163.735L149.113 163.322ZM177.62 145.652L178.708 144.618L178.006 143.88L177.061 144.26L177.62 145.652ZM259.691 163.722L260.973 162.943L260.315 161.86L259.137 162.328L259.691 163.722ZM305.5 94C305.5 107.035 302.108 119.273 296.16 129.884L298.777 131.351C304.97 120.303 308.5 107.562 308.5 94H305.5ZM232 20.5C272.593 20.5 305.5 53.4071 305.5 94H308.5C308.5 51.7502 274.25 17.5 232 17.5V20.5ZM202.852 26.5058C211.787 22.642 221.641 20.5 232 20.5V17.5C221.224 17.5 210.965 19.7289 201.661 23.7522L202.852 26.5058ZM203.547 24.3634C201.11 20.2575 196.628 17.5 191.5 17.5V20.5C195.526 20.5 199.048 22.6616 200.967 25.8946L203.547 24.3634ZM191.5 17.5C183.768 17.5 177.5 23.768 177.5 31.5H180.5C180.5 25.4249 185.425 20.5 191.5 20.5V17.5ZM177.5 31.5C177.5 34.5154 178.455 37.3122 180.079 39.5986L182.525 37.8615C181.25 36.0659 180.5 33.8727 180.5 31.5H177.5ZM158.5 94C158.5 72.5638 167.675 53.2726 182.316 39.8352L180.288 37.6249C165.053 51.6067 155.5 71.6888 155.5 94H158.5ZM163.376 120.381C160.227 112.195 158.5 103.301 158.5 94H155.5C155.5 103.675 157.297 112.934 160.576 121.459L163.376 120.381ZM132.682 134.955C140.903 133.551 146.629 132.278 151.229 130.362C155.888 128.422 159.332 125.848 163.059 121.958L160.893 119.882C157.385 123.543 154.272 125.845 150.075 127.593C145.818 129.366 140.389 130.596 132.177 131.997L132.682 134.955ZM77 110.5C98.5193 110.5 117.877 119.746 131.321 134.487L133.538 132.465C119.549 117.127 99.3978 107.5 77 107.5V110.5ZM70.9937 110.742C72.9744 110.582 74.9775 110.5 77 110.5V107.5C74.8967 107.5 72.8129 107.585 70.7519 107.752L70.9937 110.742ZM59 100.5C64.2765 100.5 68.6463 104.394 69.3886 109.464L72.357 109.029C71.4022 102.507 65.7871 97.5 59 97.5V100.5ZM48.5 111C48.5 105.201 53.201 100.5 59 100.5V97.5C51.5442 97.5 45.5 103.544 45.5 111H48.5ZM49.0828 114.459C48.7056 113.378 48.5 112.215 48.5 111H45.5C45.5 112.556 45.7637 114.053 46.2501 115.447L49.0828 114.459ZM3.5 184C3.5 153.611 21.9435 127.525 48.2536 116.334L47.0793 113.573C19.7014 125.219 0.5 152.365 0.5 184H3.5ZM11.7248 217.818C6.46994 207.697 3.5 196.197 3.5 184H0.5C0.5 196.69 3.59092 208.662 9.06225 219.201L11.7248 217.818ZM9.58558 217.246C4.72666 220.352 1.5 225.799 1.5 232H4.5C4.5 226.865 7.16845 222.352 11.2015 219.773L9.58558 217.246ZM1.5 232C1.5 241.665 9.33502 249.5 19 249.5V246.5C10.9919 246.5 4.5 240.008 4.5 232H1.5ZM19 249.5C24.0223 249.5 28.5524 247.382 31.7419 243.996L29.5579 241.939C26.9116 244.749 23.1615 246.5 19 246.5V249.5ZM77 257.5C59.8527 257.5 44.0806 251.63 31.5776 241.789L29.7221 244.146C42.7351 254.389 59.1559 260.5 77 260.5V257.5ZM144.808 212.41C133.697 238.899 107.519 257.5 77 257.5V260.5C108.769 260.5 136.012 241.135 147.575 213.571L144.808 212.41ZM145.57 214.356C148.598 215.733 151.962 216.5 155.5 216.5V213.5C152.399 213.5 149.458 212.829 146.813 211.625L145.57 214.356ZM155.5 216.5C163.441 216.5 170.481 212.642 174.847 206.704L172.43 204.927C168.605 210.129 162.447 213.5 155.5 213.5V216.5ZM172.518 206.811C173.981 208.459 176.12 209.5 178.5 209.5V206.5C177.013 206.5 175.678 205.852 174.76 204.819L172.518 206.811ZM178.5 209.5C182.918 209.5 186.5 205.918 186.5 201.5H183.5C183.5 204.261 181.261 206.5 178.5 206.5V209.5ZM186.5 201.5C186.5 197.082 182.918 193.5 178.5 193.5V196.5C181.261 196.5 183.5 198.739 183.5 201.5H186.5ZM178.5 193.5C178.235 193.5 177.972 193.513 177.713 193.538L178.005 196.524C178.168 196.508 178.333 196.5 178.5 196.5V193.5ZM179.35 195.198C179.449 194.312 179.5 193.412 179.5 192.5H176.5C176.5 193.3 176.455 194.089 176.369 194.864L179.35 195.198ZM179.5 192.5C179.5 179.245 168.755 168.5 155.5 168.5V171.5C167.098 171.5 176.5 180.902 176.5 192.5H179.5ZM155.5 168.5C153.778 168.5 152.097 168.682 150.475 169.027L151.1 171.961C152.518 171.659 153.989 171.5 155.5 171.5V168.5ZM147.671 163.735C148.329 166.033 148.878 168.378 149.311 170.763L152.263 170.226C151.812 167.743 151.24 165.302 150.555 162.909L147.671 163.735ZM177.061 144.26C167.552 148.08 156.319 153.849 148.043 162.27L150.183 164.373C158.033 156.385 168.821 150.804 178.18 147.043L177.061 144.26ZM232 167.5C211.023 167.5 192.101 158.715 178.708 144.618L176.533 146.685C190.469 161.352 210.168 170.5 232 170.5V167.5ZM259.137 162.328C250.743 165.665 241.588 167.5 232 167.5V170.5C241.974 170.5 251.505 168.591 260.246 165.116L259.137 162.328ZM258.41 164.501C263.143 172.291 271.712 177.5 281.5 177.5V174.5C272.803 174.5 265.185 169.875 260.973 162.943L258.41 164.501ZM281.5 177.5C296.412 177.5 308.5 165.412 308.5 150.5H305.5C305.5 163.755 294.755 174.5 281.5 174.5V177.5ZM308.5 150.5C308.5 141.988 304.559 134.395 298.409 129.449L296.529 131.787C302.002 136.188 305.5 142.935 305.5 150.5H308.5Z" fill="white"/>
<path d="M47 206.5C35.0776 206.5 25.3211 197.227 24.5492 185.5H69.4508C68.6789 197.227 58.9224 206.5 47 206.5Z" fill="white" stroke="black" stroke-width="3"/>
<path fill-rule="evenodd" clip-rule="evenodd" d="M47.5514 186C47.1955 186.9 47 187.88 47 188.907C47 193.273 50.5399 196.813 54.9065 196.813C59.2732 196.813 62.8131 193.273 62.8131 188.907C62.8131 187.88 62.6176 186.9 62.2617 186H47.5514Z" fill="#121212"/>
<path d="M106 206.5C94.0776 206.5 84.3211 197.227 83.5492 185.5H128.451C127.679 197.227 117.922 206.5 106 206.5Z" fill="white" stroke="black" stroke-width="3"/>
<path d="M107.551 186C107.196 186.9 107 187.88 107 188.907C107 193.273 110.54 196.813 114.907 196.813C119.273 196.813 122.813 193.273 122.813 188.907C122.813 187.88 122.618 186.9 122.262 186H107.551Z" fill="#121212"/>
<path d="M62.5 157.544C54 156.044 35.2 156.744 28 171.544" stroke="black" stroke-width="4" stroke-linecap="round"/>
<path d="M89 157.544C97.5 156.044 116.3 156.744 123.5 171.544" stroke="black" stroke-width="4" stroke-linecap="round"/>
<circle cx="205.425" cy="104.696" r="18.9252" fill="white" stroke="#121212" stroke-width="3"/>
<circle cx="196.869" cy="110.626" r="7.90654" fill="#121212"/>
<circle cx="20.4252" cy="20.4252" r="18.9252" transform="matrix(-1 0 0 1 279.878 84.2711)" fill="white" stroke="#121212" stroke-width="3"/>
<circle cx="7.90654" cy="7.90654" r="7.90654" transform="matrix(-1 0 0 1 258.775 102.72)" fill="#121212"/>
<path d="M223.215 88.2243C215.484 88.2243 198.863 86.3794 194.224 79" stroke="#121212" stroke-width="4" stroke-linecap="round"/>
<path d="M239.028 88.2243C246.759 88.2243 263.38 86.3794 268.018 79" stroke="#121212" stroke-width="4" stroke-linecap="round"/>
<defs>
<linearGradient id="paint0_linear_76_1291" x1="131.5" y1="151" x2="168.5" y2="130.5" gradientUnits="userSpaceOnUse">
<stop stop-color="#02B36F"/>
<stop offset="1" stop-color="#F64A00"/>
</linearGradient>
</defs>
</svg>
