<svg width="111" height="111" viewBox="0 0 111 111" fill="none" xmlns="http://www.w3.org/2000/svg">
<path fill-rule="evenodd" clip-rule="evenodd" d="M109 55.5C109 85.0472 85.0472 109 55.5 109C25.9528 109 2 85.0472 2 55.5C2 46.4224 4.26083 37.8728 8.25012 30.3836C5.47586 23.4384 4.11113 13.3043 11.179 4.98406C12.1018 3.9502 14.2405 2.84396 15.413 6.68994C16.1771 8.87295 17.7116 12.1565 19.9785 15.4933C29.4261 7.09876 41.8676 2 55.5 2C69.4307 2 82.1178 7.32434 91.6373 16.0491C94.1158 12.5242 95.7805 8.99408 96.587 6.68994C97.7595 2.84396 99.8982 3.9502 100.821 4.98406C108.26 13.7409 106.358 24.507 103.303 31.4498C106.947 38.6801 109 46.8503 109 55.5Z" fill="#F64A00"/>
<path d="M8.25012 30.3836L9.57401 31.0888L9.90149 30.474L9.6431 29.8272L8.25012 30.3836ZM11.179 4.98406L10.06 3.98523L10.0477 3.99893L10.0358 4.01293L11.179 4.98406ZM15.413 6.68994L13.9782 7.12735L13.9871 7.15661L13.9972 7.18549L15.413 6.68994ZM19.9785 15.4933L18.7378 16.3362L19.6978 17.7493L20.9749 16.6146L19.9785 15.4933ZM91.6373 16.0491L90.6238 17.1549L91.8824 18.3084L92.8644 16.9118L91.6373 16.0491ZM96.587 6.68994L98.0028 7.18549L98.0129 7.15661L98.0218 7.12735L96.587 6.68994ZM100.821 4.98406L101.964 4.01293L101.952 3.99893L101.94 3.98523L100.821 4.98406ZM103.303 31.4498L101.93 30.8457L101.645 31.4933L101.963 32.1251L103.303 31.4498ZM55.5 110.5C85.8757 110.5 110.5 85.8757 110.5 55.5H107.5C107.5 84.2188 84.2188 107.5 55.5 107.5V110.5ZM0.5 55.5C0.5 85.8757 25.1243 110.5 55.5 110.5V107.5C26.7812 107.5 3.5 84.2188 3.5 55.5H0.5ZM6.92623 29.6784C2.82413 37.3794 0.5 46.1705 0.5 55.5H3.5C3.5 46.6743 5.69752 38.3662 9.57401 31.0888L6.92623 29.6784ZM10.0358 4.01293C2.44749 12.9458 3.98876 23.7593 6.85715 30.94L9.6431 29.8272C6.96296 23.1176 5.77477 13.6628 12.3222 5.95519L10.0358 4.01293ZM16.8478 6.25253C16.2029 4.13719 15.0676 2.67595 13.3429 2.51366C11.8319 2.37147 10.634 3.34213 10.06 3.98523L12.2981 5.9829C12.4348 5.82974 12.6093 5.68481 12.78 5.59225C12.9521 5.49893 13.0433 5.49872 13.0618 5.50046C13.068 5.50105 13.0789 5.50226 13.1018 5.51435C13.1269 5.52755 13.1867 5.56481 13.2728 5.66028C13.4548 5.86203 13.7228 6.28979 13.9782 7.12735L16.8478 6.25253ZM21.2193 14.6503C19.0247 11.4201 17.5494 8.25323 16.8287 6.19439L13.9972 7.18549C14.8047 9.49267 16.3984 12.8928 18.7378 16.3362L21.2193 14.6503ZM55.5 0.5C41.4864 0.5 28.6938 5.74293 18.9822 14.372L20.9749 16.6146C30.1585 8.45459 42.2489 3.5 55.5 3.5V0.5ZM92.6508 14.9432C82.8655 5.97495 69.8204 0.5 55.5 0.5V3.5C69.0409 3.5 81.37 8.67373 90.6238 17.1549L92.6508 14.9432ZM92.8644 16.9118C95.4231 13.2729 97.1511 9.61895 98.0028 7.18549L95.1713 6.19439C94.41 8.36921 92.8085 11.7756 90.4103 15.1863L92.8644 16.9118ZM98.0218 7.12735C98.2772 6.28979 98.5452 5.86203 98.7272 5.66028C98.8133 5.56481 98.8731 5.52755 98.8982 5.51435C98.9211 5.50226 98.932 5.50105 98.9382 5.50046C98.9567 5.49872 99.0479 5.49893 99.22 5.59225C99.3907 5.68481 99.5652 5.82974 99.7019 5.9829L101.94 3.98523C101.366 3.34213 100.168 2.37147 98.6571 2.51366C96.9324 2.67595 95.7971 4.13719 95.1522 6.25253L98.0218 7.12735ZM99.6778 5.95519C106.568 14.0664 104.889 24.1214 101.93 30.8457L104.675 32.054C107.827 24.8926 109.951 13.4154 101.964 4.01293L99.6778 5.95519ZM110.5 55.5C110.5 46.6105 108.39 38.2095 104.642 30.7746L101.963 32.1251C105.505 39.1507 107.5 47.0902 107.5 55.5H110.5Z" fill="white"/>
<circle cx="36.5" cy="69.5" r="14" fill="white" stroke="#121212" stroke-width="3"/>
<circle cx="39" cy="74" r="6" fill="#121212"/>
<circle cx="15.5" cy="15.5" r="14" transform="matrix(-1 0 0 1 93 54)" fill="white" stroke="#121212" stroke-width="3"/>
<circle cx="6" cy="6" r="6" transform="matrix(-1 0 0 1 81 68)" fill="#121212"/>
<path d="M50 57C44.1333 57 31.52 55.6 28 50" stroke="#121212" stroke-width="4" stroke-linecap="round"/>
<path d="M62 57C67.8667 57 80.48 55.6 84 50" stroke="#121212" stroke-width="4" stroke-linecap="round"/>
<rect x="44" y="14" width="25" height="3" fill="#FFB393"/>
<rect x="44" y="24" width="26" height="3" fill="#FFB393"/>
<rect x="41" y="34" width="31" height="3" fill="#FFB393"/>
<rect x="55" y="16" width="3" height="21" fill="#FFB393"/>
<rect x="43" y="12" width="25" height="3" fill="white"/>
<rect x="43" y="22" width="26" height="3" fill="white"/>
<rect x="40" y="32" width="31" height="3" fill="white"/>
<rect x="54" y="14" width="3" height="21" fill="white"/>
</svg>
