<svg width="375" height="380" viewBox="0 0 375 380" fill="none" xmlns="http://www.w3.org/2000/svg">
<path opacity="0.1" fill-rule="evenodd" clip-rule="evenodd" d="M-52.6533 91.1954C-42.1834 80.6361 -27.985 74.7042 -13.1805 74.7042C1.62405 74.7042 15.8224 80.6361 26.2924 91.1954L42.651 107.685L59.0096 91.1954C64.1599 85.8158 70.3206 81.5248 77.1323 78.5728C83.9439 75.6209 91.2701 74.0671 98.6834 74.0021C106.097 73.9371 113.449 75.3623 120.31 78.1943C127.171 81.0264 133.405 85.2087 138.647 90.4972C143.89 95.7857 148.035 102.075 150.842 108.997C153.65 115.919 155.062 123.336 154.998 130.815C154.933 138.293 153.393 145.684 150.467 152.556C147.541 159.428 143.288 165.643 137.955 170.839L42.651 267L-52.6533 170.839C-63.1201 160.277 -69 145.953 -69 131.017C-69 116.082 -63.1201 101.758 -52.6533 91.1954V91.1954Z" fill="white"/>
<path opacity="0.1" fill-rule="evenodd" clip-rule="evenodd" d="M270.655 265.226C277.479 258.332 286.733 254.46 296.382 254.46C306.032 254.46 315.286 258.332 322.11 265.226L332.773 275.991L343.435 265.226C346.792 261.714 350.807 258.913 355.247 256.985C359.687 255.058 364.462 254.044 369.294 254.001C374.125 253.959 378.917 254.889 383.39 256.738C387.862 258.587 391.925 261.318 395.342 264.77C398.758 268.223 401.46 272.328 403.29 276.848C405.12 281.367 406.041 286.209 405.999 291.091C405.957 295.974 404.953 300.799 403.046 305.285C401.138 309.772 398.366 313.829 394.891 317.221L332.773 380L270.655 317.221C263.832 310.326 260 300.974 260 291.224C260 281.473 263.832 272.122 270.655 265.226V265.226Z" fill="white"/>
<path opacity="0.1" fill-rule="evenodd" clip-rule="evenodd" d="M281.473 5.79119C284.979 2.23494 289.733 0.237152 294.69 0.237152C299.646 0.237152 304.4 2.23494 307.906 5.79119L313.383 11.3445L318.86 5.79119C320.585 3.9794 322.648 2.53426 324.928 1.54008C327.209 0.545902 329.662 0.0226036 332.144 0.000716229C334.626 -0.0211712 337.088 0.458792 339.385 1.4126C341.682 2.36641 343.77 3.77496 345.525 5.55606C347.28 7.33717 348.668 9.45516 349.608 11.7864C350.548 14.1177 351.021 16.6156 350.999 19.1344C350.978 21.6532 350.462 24.1424 349.482 26.4567C348.503 28.7711 347.078 30.8643 345.293 32.6142L313.383 65L281.473 32.6142C277.969 29.0569 276 24.2327 276 19.2027C276 14.1726 277.969 9.34851 281.473 5.79119V5.79119Z" fill="white"/>
</svg>
