<svg width="231" height="154" viewBox="0 0 231 154" fill="none" xmlns="http://www.w3.org/2000/svg">
<path fill-rule="evenodd" clip-rule="evenodd" d="M190 72.5C190 111.436 158.436 143 119.5 143C80.5639 143 49 111.436 49 72.5C49 60.5379 51.9792 49.2716 57.2362 39.4026C53.5804 30.2506 51.7821 16.8963 61.0958 5.93231C62.3118 4.56993 65.1301 3.11218 66.6751 8.18025C67.682 11.0569 69.7041 15.3837 72.6914 19.7808C85.141 8.71891 101.536 2 119.5 2C137.857 2 154.576 9.01615 167.12 20.5132C170.386 15.8684 172.58 11.2165 173.643 8.18025C175.188 3.11218 178.006 4.56993 179.222 5.93231C189.024 17.4716 186.518 31.6586 182.492 40.8076C187.295 50.3353 190 61.1018 190 72.5Z" fill="#F64A00"/>
<path d="M57.2362 39.4026L58.5601 40.1078L58.8875 39.493L58.6292 38.8462L57.2362 39.4026ZM61.0958 5.93231L59.9768 4.93348L59.9645 4.94718L59.9526 4.96118L61.0958 5.93231ZM66.6751 8.18025L65.2403 8.61765L65.2492 8.64692L65.2593 8.6758L66.6751 8.18025ZM72.6914 19.7808L71.4506 20.6238L72.4107 22.0368L73.6877 20.9021L72.6914 19.7808ZM167.12 20.5132L166.107 21.619L167.365 22.7725L168.347 21.3759L167.12 20.5132ZM173.643 8.18025L175.058 8.6758L175.068 8.64692L175.077 8.61765L173.643 8.18025ZM179.222 5.93231L180.365 4.96118L180.353 4.94718L180.341 4.93348L179.222 5.93231ZM182.492 40.8076L181.119 40.2034L180.834 40.851L181.153 41.4828L182.492 40.8076ZM119.5 144.5C159.265 144.5 191.5 112.265 191.5 72.5H188.5C188.5 110.608 157.608 141.5 119.5 141.5V144.5ZM47.5 72.5C47.5 112.265 79.7355 144.5 119.5 144.5V141.5C81.3924 141.5 50.5 110.608 50.5 72.5H47.5ZM55.9123 38.6974C50.5425 48.7781 47.5 60.286 47.5 72.5H50.5C50.5 60.7897 53.4159 49.765 58.5601 40.1078L55.9123 38.6974ZM59.9526 4.96118C50.1184 16.5378 52.0933 30.5714 55.8432 39.959L58.6292 38.8462C55.0675 29.9298 53.4457 17.2548 62.239 6.90345L59.9526 4.96118ZM68.1099 7.74284C67.2788 5.01645 65.8805 3.33757 63.9026 3.15146C62.1385 2.98546 60.6974 4.12612 59.9768 4.93348L62.2149 6.93115C62.7103 6.37613 63.2863 6.10672 63.6216 6.13827C63.7431 6.1497 64.5264 6.27598 65.2403 8.61765L68.1099 7.74284ZM73.9321 18.9379C71.0172 14.6474 69.0543 10.4372 68.0909 7.68469L65.2593 8.6758C66.3097 11.6766 68.3909 16.1201 71.4506 20.6238L73.9321 18.9379ZM119.5 0.5C101.155 0.5 84.4086 7.36309 71.6951 18.6595L73.6877 20.9021C85.8734 10.0747 101.917 3.5 119.5 3.5V0.5ZM168.134 19.4073C155.323 7.66676 138.247 0.5 119.5 0.5V3.5C137.467 3.5 153.828 10.3655 166.107 21.619L168.134 19.4073ZM168.347 21.3759C171.693 16.617 173.95 11.8414 175.058 8.6758L172.227 7.68469C171.209 10.5916 169.079 15.1197 165.893 19.6504L168.347 21.3759ZM175.077 8.61765C175.791 6.27598 176.575 6.1497 176.696 6.13827C177.031 6.10672 177.607 6.37613 178.103 6.93115L180.341 4.93348C179.62 4.12612 178.179 2.98546 176.415 3.15146C174.437 3.33757 173.039 5.01645 172.208 7.74284L175.077 8.61765ZM178.079 6.90345C187.333 17.7971 185.049 31.273 181.119 40.2034L183.865 41.4117C187.987 32.0441 190.716 17.1461 180.365 4.96118L178.079 6.90345ZM191.5 72.5C191.5 60.8619 188.738 49.8647 183.831 40.1323L181.153 41.4828C185.852 50.8059 188.5 61.3416 188.5 72.5H191.5Z" fill="white"/>
<circle cx="94.4628" cy="90.9486" r="18.9252" fill="white" stroke="#121212" stroke-width="3"/>
<circle cx="93.9065" cy="91.9065" r="7.90654" fill="#121212"/>
<circle cx="20.4252" cy="20.4252" r="18.9252" transform="matrix(-1 0 0 1 168.916 70.5234)" fill="white" stroke="#121212" stroke-width="3"/>
<circle cx="7.90654" cy="7.90654" r="7.90654" transform="matrix(-1 0 0 1 155.813 84)" fill="#121212"/>
<path d="M101.991 56C94.2599 56 77.6386 57.8449 73.0001 65.2243" stroke="#121212" stroke-width="4" stroke-linecap="round"/>
<path d="M140 56C147.731 56 164.352 57.8449 168.991 65.2243" stroke="#121212" stroke-width="4" stroke-linecap="round"/>
<ellipse cx="79.5" cy="115.5" rx="10.5" ry="4.5" fill="#FF9A6F"/>
<ellipse cx="161.5" cy="115.5" rx="10.5" ry="4.5" fill="#FF9A6F"/>
<path fill-rule="evenodd" clip-rule="evenodd" d="M7.32727 46.613C10.7394 43.1662 15.3665 41.2299 20.1912 41.2299C25.0159 41.2299 29.643 43.1662 33.0551 46.613L38.3863 51.9955L43.7174 46.613C45.3959 44.857 47.4036 43.4563 49.6235 42.4927C51.8433 41.5291 54.2309 41.0219 56.6468 41.0007C59.0627 40.9795 61.4587 41.4447 63.6948 42.3691C65.9309 43.2936 67.9624 44.6588 69.6708 46.3851C71.3792 48.1114 72.7302 50.1642 73.6451 52.4238C74.5599 54.6834 75.0203 57.1044 74.9993 59.5457C74.9783 61.9869 74.4764 64.3995 73.5228 66.6427C72.5692 68.8858 71.1831 70.9146 69.4453 72.6107L38.3863 104L7.32727 72.6107C3.91622 69.1628 2 64.4871 2 59.6118C2 54.7366 3.91622 50.0609 7.32727 46.613Z" fill="#FF4689" stroke="white" stroke-width="3" stroke-linejoin="round"/>
<path fill-rule="evenodd" clip-rule="evenodd" d="M36.1893 128.316C37.5915 126.894 39.4931 126.095 41.4758 126.095C43.4586 126.095 45.3601 126.894 46.7624 128.316L48.9533 130.538L51.1441 128.316C51.8339 127.592 52.659 127.014 53.5713 126.616C54.4836 126.218 55.4647 126.009 56.4576 126C57.4504 125.992 58.4351 126.184 59.354 126.565C60.273 126.947 61.1078 127.51 61.8099 128.222C62.512 128.935 63.0672 129.782 63.4432 130.715C63.8192 131.647 64.0083 132.646 63.9997 133.654C63.9911 134.661 63.7848 135.657 63.3929 136.583C63.001 137.508 62.4314 138.346 61.7172 139.046L48.9533 152L36.1893 139.046C34.7875 137.623 34 135.693 34 133.681C34 131.669 34.7875 129.739 36.1893 128.316Z" fill="#FF4689" stroke="white" stroke-width="3" stroke-linejoin="round"/>
<path fill-rule="evenodd" clip-rule="evenodd" d="M173.379 104.633C176.183 101.788 179.986 100.19 183.952 100.19C187.917 100.19 191.72 101.788 194.525 104.633L198.907 109.076L203.288 104.633C204.668 103.184 206.318 102.027 208.143 101.232C209.967 100.437 211.929 100.018 213.915 100.001C215.901 99.9831 217.87 100.367 219.708 101.13C221.546 101.893 223.216 103.02 224.62 104.445C226.024 105.87 227.134 107.564 227.886 109.429C228.638 111.294 229.017 113.293 228.999 115.308C228.982 117.323 228.57 119.314 227.786 121.165C227.002 123.017 225.863 124.691 224.434 126.091L198.907 152L173.379 126.091C170.575 123.245 169 119.386 169 115.362C169 111.338 170.575 107.479 173.379 104.633Z" fill="#FF4689" stroke="white" stroke-width="3" stroke-linejoin="round"/>
</svg>
