<svg width="133" height="117" viewBox="0 0 133 117" fill="none" xmlns="http://www.w3.org/2000/svg">
<path fill-rule="evenodd" clip-rule="evenodd" d="M-20.9571 73.4282L-37.4115 82.9282C-42.1945 85.6896 -43.8332 91.8055 -41.0718 96.5885C-38.3104 101.371 -32.1945 103.01 -27.4115 100.249L-10.9571 90.7487C-6.17414 87.9873 -4.53538 81.8714 -7.29681 77.0885C-10.0582 72.3055 -16.1741 70.6668 -20.9571 73.4282ZM-41.4115 76C-50.0208 80.9706 -52.9706 91.9792 -48 100.588C-43.0294 109.198 -32.0208 112.147 -23.4115 107.177L-6.95706 97.6769C1.65221 92.7064 4.60196 81.6977 -0.368604 73.0885C-5.33917 64.4792 -16.3478 61.5294 -24.9571 66.5L-41.4115 76Z" fill="#832C05" stroke="#1D1D1B" stroke-width="2"/>
<path fill-rule="evenodd" clip-rule="evenodd" d="M26.6743 45.9282L10.2199 55.4282C5.43694 58.1896 3.79819 64.3055 6.55961 69.0885C9.32104 73.8714 15.4369 75.5101 20.2199 72.7487L36.6743 63.2487C41.4573 60.4873 43.096 54.3714 40.3346 49.5885C37.5732 44.8055 31.4573 43.1668 26.6743 45.9282ZM6.21987 48.5C-2.3894 53.4706 -5.33915 64.4792 -0.368591 73.0885C4.60197 81.6977 15.6106 84.6475 24.2199 79.6769L40.6743 70.1769C49.2836 65.2064 52.2334 54.1977 47.2628 45.5885C42.2922 36.9792 31.2836 34.0294 22.6743 39L6.21987 48.5Z" fill="#832C05" stroke="#1D1D1B" stroke-width="2"/>
<rect x="-21.7382" y="79.0753" width="43" height="12" rx="6" transform="rotate(-30 -21.7382 79.0753)" fill="#832C05" stroke="#1D1D1B" stroke-width="3"/>
<path fill-rule="evenodd" clip-rule="evenodd" d="M55.0429 30.4282L38.5885 39.9282C33.8055 42.6896 32.1668 48.8055 34.9282 53.5885C37.6896 58.3714 43.8055 60.0101 48.5885 57.2487L65.0429 47.7487C69.8259 44.9873 71.4646 38.8714 68.7032 34.0885C65.9418 29.3055 59.8259 27.6668 55.0429 30.4282ZM34.5885 33C25.9792 37.9706 23.0294 48.9792 28 57.5885C32.9706 66.1977 43.9792 69.1475 52.5885 64.1769L69.0429 54.6769C77.6522 49.7064 80.602 38.6977 75.6314 30.0885C70.6608 21.4792 59.6522 18.5294 51.0429 23.5L34.5885 33Z" fill="#832C05" stroke="#1D1D1B" stroke-width="2"/>
<path fill-rule="evenodd" clip-rule="evenodd" d="M102.674 2.9282L86.2199 12.4282C81.4369 15.1896 79.7982 21.3055 82.5596 26.0885C85.321 30.8714 91.4369 32.5101 96.2199 29.7487L112.674 20.2487C117.457 17.4873 119.096 11.3714 116.335 6.58846C113.573 1.80553 107.457 0.16678 102.674 2.9282ZM82.2199 5.5C73.6106 10.4706 70.6608 21.4792 75.6314 30.0885C80.602 38.6977 91.6106 41.6475 100.22 36.6769L116.674 27.1769C125.284 22.2064 128.233 11.1977 123.263 2.58846C118.292 -6.02081 107.284 -8.97056 98.6743 -4L82.2199 5.5Z" fill="#832C05" stroke="#1D1D1B" stroke-width="2"/>
<rect x="54.2618" y="36.0753" width="43" height="12" rx="6" transform="rotate(-30 54.2618 36.0753)" fill="#832C05" stroke="#1D1D1B" stroke-width="3"/>
</svg>
