<svg width="375" height="164" viewBox="0 0 375 164" fill="none" xmlns="http://www.w3.org/2000/svg">
<g clip-path="url(#clip0_76_926)">
<rect width="412" height="27" transform="translate(-25.482 98.3851) rotate(-9.27692)" fill="#F9A527"/>
<path d="M61.9434 102.873C60.9726 103.618 59.7689 104.099 58.4119 104.321C55.7749 104.752 53.114 103.872 52.5901 100.665L51.842 96.085C51.318 92.8775 53.5609 91.1971 56.1978 90.7663C57.6165 90.5346 58.9776 90.6289 60.137 91.1361L59.425 93.6589C58.7868 93.2407 57.8442 93.1889 56.7802 93.3627C55.6082 93.5541 54.712 94.2704 54.9815 95.9205L55.6188 99.8219C55.8883 101.472 56.8888 101.878 57.9836 101.7C59.171 101.506 60.1715 101.136 60.7798 100.499L61.9434 102.873ZM74.6554 101.509L71.6021 102.008L70.4951 99.5926L66.5783 100.232L66.2975 102.875L63.2442 103.373L64.8277 89.515L68.7445 88.8752L74.6554 101.509ZM66.8594 97.495L69.3576 97.0869L67.3529 92.6648L66.8594 97.495ZM85.3388 95.189C85.8954 98.5969 84.2414 100.102 81.2344 100.593C78.2274 101.084 76.1804 100.184 75.6238 96.7759L74.188 87.9861L77.2721 87.4823L78.7331 96.4263C78.9573 97.7987 79.6651 98.1581 80.8062 97.9717C81.9473 97.7853 82.504 97.2194 82.2798 95.847L80.8189 86.903L83.903 86.3992L85.3388 95.189ZM95.6998 84.4723L96.128 87.0938L92.7355 87.648L94.471 98.2728L91.3868 98.7765L89.6513 88.1517L86.2588 88.7059L85.8306 86.0844L95.6998 84.4723ZM99.2513 97.4919L98.8735 95.1788L100.261 94.9521L98.8533 86.332L97.4655 86.5587L97.0877 84.2456L102.639 83.3388L103.017 85.6519L101.629 85.8786L103.037 94.4987L104.425 94.2721L104.803 96.5851L99.2513 97.4919ZM111.262 92.997C112.341 92.8206 113.022 92.1396 112.752 90.4895L112.115 86.5881C111.845 84.9381 110.984 84.5089 109.904 84.6852C108.825 84.8616 108.144 85.5426 108.414 87.1926L109.051 91.0941C109.321 92.7441 110.183 93.1733 111.262 92.997ZM106.023 91.9371L105.274 87.3572C104.751 84.1497 106.839 82.4945 109.476 82.0637C112.113 81.633 114.62 82.5376 115.144 85.7451L115.892 90.325C116.416 93.5325 114.327 95.1877 111.69 95.6185C109.053 96.0492 106.546 95.1446 106.023 91.9371ZM123.765 79.888L126.387 79.4598L128.551 92.7061L125.775 93.1595L120.501 86.0733L121.765 93.8144L119.144 94.2426L116.98 80.9963L119.756 80.5429L125.032 87.6446L123.765 79.888Z" fill="#121212"/>
<path d="M198.138 80.627C197.168 81.3714 195.964 81.853 194.607 82.0746C191.97 82.5053 189.309 81.6259 188.785 78.4184L188.037 73.8385C187.513 70.631 189.756 68.9506 192.393 68.5199C193.812 68.2882 195.173 68.3825 196.332 68.8897L195.62 71.4125C194.982 70.9943 194.039 70.9424 192.975 71.1162C191.803 71.3076 190.907 72.024 191.177 73.674L191.814 77.5754C192.083 79.2254 193.084 79.632 194.179 79.4531C195.366 79.2592 196.367 78.8899 196.975 78.2523L198.138 80.627ZM210.851 79.263L207.797 79.7618L206.69 77.3461L202.773 77.9859L202.493 80.6282L199.439 81.127L201.023 67.2686L204.94 66.6288L210.851 79.263ZM203.055 75.2485L205.553 74.8405L203.548 70.4183L203.055 75.2485ZM221.534 72.9425C222.09 76.3505 220.436 77.8556 217.429 78.3467C214.422 78.8379 212.375 77.9374 211.819 74.5294L210.383 65.7396L213.467 65.2359L214.928 74.1798C215.152 75.5523 215.86 75.9116 217.001 75.7252C218.142 75.5388 218.699 74.9729 218.475 73.6005L217.014 64.6565L220.098 64.1528L221.534 72.9425ZM231.895 62.2258L232.323 64.8474L228.931 65.4015L230.666 76.0263L227.582 76.5301L225.846 65.9053L222.454 66.4594L222.026 63.8379L231.895 62.2258ZM235.446 75.2455L235.069 72.9324L236.456 72.7057L235.048 64.0855L233.661 64.3122L233.283 61.9991L238.834 61.0924L239.212 63.4055L237.824 63.6322L239.232 72.2523L240.62 72.0256L240.998 74.3387L235.446 75.2455ZM247.457 70.7505C248.536 70.5742 249.217 69.8931 248.947 68.2431L248.31 64.3417C248.041 62.6917 247.179 62.2625 246.099 62.4388C245.02 62.6151 244.34 63.2962 244.609 64.9462L245.246 68.8476C245.516 70.4976 246.378 70.9268 247.457 70.7505ZM242.218 69.6906L241.47 65.1107C240.946 61.9032 243.034 60.248 245.671 59.8173C248.308 59.3865 250.815 60.2911 251.339 63.4986L252.087 68.0786C252.611 71.2861 250.522 72.9413 247.885 73.372C245.248 73.8027 242.742 72.8981 242.218 69.6906ZM259.96 57.6415L262.582 57.2133L264.746 70.4597L261.97 70.9131L256.696 63.8268L257.961 71.568L255.339 71.9962L253.175 58.7498L255.951 58.2964L261.227 65.3981L259.96 57.6415Z" fill="#121212"/>
<path d="M334.334 58.3805C333.363 59.1249 332.159 59.6065 330.802 59.8282C328.165 60.2589 325.504 59.3795 324.98 56.172L324.232 51.5921C323.708 48.3846 325.951 46.7041 328.588 46.2734C330.007 46.0417 331.368 46.136 332.527 46.6432L331.815 49.166C331.177 48.7478 330.234 48.6959 329.17 48.8697C327.998 49.0612 327.102 49.7775 327.372 51.4275L328.009 55.329C328.278 56.979 329.279 57.3855 330.374 57.2067C331.561 57.0127 332.562 56.6435 333.17 56.0058L334.334 58.3805ZM347.046 57.0166L343.992 57.5153L342.885 55.0997L338.968 55.7395L338.688 58.3818L335.634 58.8805L337.218 45.0221L341.135 44.3823L347.046 57.0166ZM339.25 53.0021L341.748 52.594L339.743 48.1719L339.25 53.0021ZM357.729 50.6961C358.286 54.104 356.632 55.6091 353.625 56.1003C350.617 56.5914 348.571 55.6909 348.014 52.2829L346.578 43.4932L349.662 42.9894L351.123 51.9334C351.347 53.3058 352.055 53.6652 353.196 53.4788C354.337 53.2924 354.894 52.7265 354.67 51.354L353.209 42.4101L356.293 41.9063L357.729 50.6961ZM368.09 39.9794L368.518 42.6009L365.126 43.155L366.861 53.7799L363.777 54.2836L362.041 43.6588L358.649 44.213L358.221 41.5914L368.09 39.9794ZM371.641 52.999L371.264 50.6859L372.651 50.4592L371.243 41.8391L369.856 42.0658L369.478 39.7527L375.029 38.8459L375.407 41.159L374.019 41.3857L375.427 50.0058L376.815 49.7791L377.193 52.0922L371.641 52.999ZM383.652 48.504C384.731 48.3277 385.412 47.6466 385.142 45.9966L384.505 42.0952C384.236 40.4452 383.374 40.016 382.294 40.1923C381.215 40.3686 380.535 41.0497 380.804 42.6997L381.441 46.6011C381.711 48.2512 382.573 48.6804 383.652 48.504ZM378.413 47.4442L377.665 42.8642C377.141 39.6568 379.229 38.0015 381.866 37.5708C384.503 37.1401 387.01 38.0447 387.534 41.2522L388.282 45.8321C388.806 49.0396 386.717 50.6948 384.08 51.1255C381.443 51.5563 378.937 50.6517 378.413 47.4442ZM396.155 35.3951L398.777 34.9669L400.941 48.2132L398.165 48.6666L392.891 41.5803L394.156 49.3215L391.534 49.7497L389.37 36.5034L392.146 36.05L397.422 43.1517L396.155 35.3951Z" fill="#121212"/>
</g>
<g clip-path="url(#clip1_76_926)">
<rect width="412" height="27" transform="translate(59.3627 -23) rotate(20.8953)" fill="#FFDF3F"/>
<path d="M141.325 -43.0882L171.774 -31.4638L54.6699 33.0098L24.2211 21.3854L141.325 -43.0882Z" fill="#121212"/>
<path d="M202.985 -19.5486L233.434 -7.92414L116.329 56.5495L85.8805 44.925L202.985 -19.5486Z" fill="#121212"/>
<path d="M264.644 3.99107L295.093 15.6155L177.989 80.0891L147.54 68.4647L264.644 3.99107Z" fill="#121212"/>
<path d="M326.304 27.5307L356.753 39.1551L239.648 103.629L209.199 92.0043L326.304 27.5307Z" fill="#121212"/>
<path d="M387.963 51.0703L418.412 62.6948L301.308 127.168L270.859 115.544L387.963 51.0703Z" fill="#121212"/>
<path d="M449.623 74.61L480.071 86.2344L362.967 150.708L332.518 139.084L449.623 74.61Z" fill="#121212"/>
</g>
<g clip-path="url(#clip2_76_926)">
<rect width="412" height="27" transform="translate(-24.7803 72) rotate(9.1123)" fill="#FFDF3F"/>
<path d="M56.7648 103.839C55.6087 104.239 54.3145 104.317 52.9569 104.099C50.3187 103.676 48.0711 102.002 48.5858 98.7928L49.3207 94.2108C49.8354 91.0018 52.4938 90.1147 55.132 90.5379C56.5514 90.7655 57.8132 91.2844 58.7534 92.1315L57.2819 94.3008C56.8082 93.7026 55.9301 93.3561 54.8656 93.1853C53.6931 92.9973 52.6166 93.3943 52.3519 95.0451L51.7258 98.9483C51.461 100.599 52.2822 101.3 53.3776 101.476C54.5655 101.667 55.6313 101.632 56.4097 101.219L56.7648 103.839ZM69.258 106.555L66.2033 106.065L65.9148 103.424L61.9962 102.795L60.8961 105.214L57.8414 104.724L63.716 92.0729L67.6346 92.7015L69.258 106.555ZM63.1265 100.286L65.6258 100.687L65.1185 95.8584L63.1265 100.286ZM81.3897 103.928C80.8428 107.337 78.7985 108.244 75.79 107.761C72.7816 107.279 71.1233 105.778 71.6702 102.369L73.0807 93.575L76.1662 94.0699L74.731 103.018C74.5108 104.391 75.0691 104.955 76.2107 105.138C77.3524 105.322 78.0592 104.96 78.2794 103.587L79.7146 94.639L82.8002 95.1339L81.3897 103.928ZM94.6024 97.0269L94.1818 99.6497L90.7877 99.1053L89.0827 109.735L85.9971 109.24L87.7021 98.6104L84.308 98.066L84.7287 95.4432L94.6024 97.0269ZM93.8653 110.502L94.2365 108.188L95.625 108.411L97.0083 99.7865L95.6198 99.5638L95.991 97.2496L101.545 98.1405L101.174 100.455L99.7853 100.232L98.402 108.856L99.7905 109.079L99.4193 111.393L93.8653 110.502ZM106.681 110.026C107.761 110.199 108.621 109.767 108.886 108.116L109.512 104.213C109.777 102.562 109.094 101.883 108.014 101.71C106.934 101.537 106.074 101.969 105.809 103.619L105.183 107.523C104.918 109.173 105.601 109.852 106.681 110.026ZM102.043 107.367L102.778 102.785C103.293 99.576 105.797 98.6642 108.435 99.0874C111.073 99.5105 113.167 101.16 112.652 104.369L111.917 108.951C111.402 112.16 108.898 113.072 106.26 112.648C103.622 112.225 101.528 110.576 102.043 107.367ZM122.681 101.531L125.304 101.951L123.178 115.204L120.401 114.758L117.632 106.37L116.39 114.115L113.767 113.694L115.893 100.442L118.67 100.887L121.436 109.291L122.681 101.531Z" fill="#121212"/>
<path d="M193.023 125.694C191.867 126.094 190.573 126.172 189.215 125.954C186.577 125.531 184.329 123.857 184.844 120.648L185.579 116.066C186.094 112.857 188.752 111.97 191.39 112.393C192.81 112.621 194.072 113.139 195.012 113.987L193.54 116.156C193.067 115.558 192.189 115.211 191.124 115.04C189.951 114.852 188.875 115.249 188.61 116.9L187.984 120.803C187.719 122.454 188.541 123.156 189.636 123.331C190.824 123.522 191.89 123.487 192.668 123.074L193.023 125.694ZM205.516 128.41L202.462 127.92L202.173 125.279L198.255 124.65L197.154 127.069L194.1 126.579L199.974 113.928L203.893 114.556L205.516 128.41ZM199.385 122.141L201.884 122.542L201.377 117.713L199.385 122.141ZM217.648 125.783C217.101 129.192 215.057 130.099 212.048 129.616C209.04 129.134 207.382 127.633 207.929 124.224L209.339 115.43L212.425 115.925L210.989 124.873C210.769 126.246 211.327 126.81 212.469 126.994C213.611 127.177 214.318 126.815 214.538 125.442L215.973 116.494L219.059 116.989L217.648 125.783ZM230.861 118.882L230.44 121.505L227.046 120.96L225.341 131.59L222.256 131.095L223.96 120.465L220.566 119.921L220.987 117.298L230.861 118.882ZM230.124 132.357L230.495 130.043L231.883 130.266L233.267 121.642L231.878 121.419L232.249 119.105L237.803 119.996L237.432 122.31L236.044 122.087L234.66 130.711L236.049 130.934L235.678 133.248L230.124 132.357ZM242.939 131.881C244.019 132.054 244.879 131.622 245.144 129.971L245.77 126.068C246.035 124.417 245.353 123.738 244.273 123.565C243.193 123.392 242.332 123.824 242.068 125.474L241.442 129.378C241.177 131.028 241.859 131.708 242.939 131.881ZM238.302 129.222L239.036 124.64C239.551 121.431 242.055 120.519 244.693 120.942C247.332 121.366 249.425 123.015 248.91 126.224L248.175 130.806C247.661 134.015 245.157 134.927 242.518 134.503C239.88 134.08 237.787 132.431 238.302 129.222ZM258.939 123.386L261.562 123.806L259.437 137.059L256.66 136.613L253.891 128.225L252.648 135.97L250.026 135.549L252.151 122.297L254.928 122.742L257.695 131.146L258.939 123.386Z" fill="#121212"/>
<path d="M329.282 147.549C328.126 147.949 326.831 148.027 325.474 147.809C322.836 147.386 320.588 145.712 321.103 142.503L321.838 137.921C322.352 134.712 325.011 133.825 327.649 134.248C329.068 134.476 330.33 134.994 331.27 135.842L329.799 138.011C329.325 137.413 328.447 137.066 327.382 136.895C326.21 136.707 325.133 137.104 324.869 138.755L324.243 142.658C323.978 144.309 324.799 145.011 325.894 145.186C327.082 145.377 328.148 145.342 328.927 144.929L329.282 147.549ZM341.775 150.265L338.72 149.775L338.432 147.134L334.513 146.505L333.413 148.924L330.358 148.434L336.233 135.783L340.151 136.412L341.775 150.265ZM335.643 143.996L338.143 144.397L337.635 139.569L335.643 143.996ZM353.906 147.638C353.36 151.047 351.315 151.954 348.307 151.471C345.298 150.989 343.64 149.488 344.187 146.079L345.597 137.285L348.683 137.78L347.248 146.728C347.028 148.101 347.586 148.665 348.728 148.849C349.869 149.032 350.576 148.67 350.796 147.297L352.231 138.349L355.317 138.844L353.906 147.638ZM367.119 140.737L366.699 143.36L363.304 142.815L361.599 153.445L358.514 152.95L360.219 142.32L356.825 141.776L357.245 139.153L367.119 140.737ZM366.382 154.212L366.753 151.898L368.142 152.121L369.525 143.497L368.137 143.274L368.508 140.96L374.062 141.851L373.691 144.165L372.302 143.942L370.919 152.566L372.307 152.789L371.936 155.103L366.382 154.212ZM379.197 153.736C380.277 153.909 381.138 153.477 381.403 151.827L382.029 147.923C382.293 146.273 381.611 145.593 380.531 145.42C379.451 145.247 378.591 145.679 378.326 147.329L377.7 151.233C377.435 152.883 378.117 153.563 379.197 153.736ZM374.56 151.077L375.295 146.495C375.81 143.286 378.314 142.374 380.952 142.797C383.59 143.221 385.683 144.87 385.169 148.079L384.434 152.661C383.919 155.87 381.415 156.782 378.777 156.358C376.139 155.935 374.045 154.286 374.56 151.077ZM395.198 145.241L397.821 145.661L395.695 158.914L392.918 158.468L390.149 150.08L388.907 157.825L386.284 157.404L388.41 144.152L391.187 144.597L393.953 153.001L395.198 145.241Z" fill="#121212"/>
</g>
<defs>
<clipPath id="clip0_76_926">
<rect width="412" height="27" fill="white" transform="translate(-25.482 98.3851) rotate(-9.27692)"/>
</clipPath>
<clipPath id="clip1_76_926">
<rect width="412" height="27" fill="white" transform="translate(59.3627 -23) rotate(20.8953)"/>
</clipPath>
<clipPath id="clip2_76_926">
<rect width="412" height="27" fill="white" transform="translate(-24.7803 72) rotate(9.1123)"/>
</clipPath>
</defs>
</svg>
