<svg width="275" height="168" viewBox="0 0 275 168" fill="none" xmlns="http://www.w3.org/2000/svg">
<path fill-rule="evenodd" clip-rule="evenodd" d="M260.588 96.9282L277.043 106.428C281.826 109.19 283.465 115.306 280.703 120.088C277.942 124.871 271.826 126.51 267.043 123.749L250.588 114.249C245.806 111.487 244.167 105.371 246.928 100.588C249.69 95.8055 255.806 94.1668 260.588 96.9282ZM281.043 99.5C289.652 104.471 292.602 115.479 287.631 124.088C282.661 132.698 271.652 135.647 263.043 130.677L246.588 121.177C237.979 116.206 235.029 105.198 240 96.5885C244.971 87.9792 255.979 85.0294 264.588 90L281.043 99.5Z" fill="#F64A00" stroke="#1D1D1B" stroke-width="2"/>
<rect x="-2.04904" y="0.549038" width="43" height="12" rx="6" transform="matrix(-0.866025 -0.5 -0.5 0.866025 307.501 128.575)" fill="#F64A00" stroke="#1D1D1B" stroke-width="3"/>
<path fill-rule="evenodd" clip-rule="evenodd" d="M232.22 81.4282L248.674 90.9282C253.457 93.6896 255.096 99.8055 252.335 104.588C249.573 109.371 243.457 111.01 238.674 108.249L222.22 98.7487C217.437 95.9873 215.798 89.8714 218.56 85.0885C221.321 80.3055 227.437 78.6668 232.22 81.4282ZM252.674 84C261.284 88.9706 264.233 99.9792 259.263 108.588C254.292 117.198 243.284 120.147 234.674 115.177L218.22 105.677C209.611 100.706 206.661 89.6977 211.631 81.0885C216.602 72.4792 227.611 69.5294 236.22 74.5L252.674 84Z" fill="#F64A00" stroke="#1D1D1B" stroke-width="2"/>
<path fill-rule="evenodd" clip-rule="evenodd" d="M184.588 53.9282L201.043 63.4282C205.826 66.1896 207.465 72.3055 204.703 77.0885C201.942 81.8714 195.826 83.5101 191.043 80.7487L174.588 71.2487C169.806 68.4873 168.167 62.3714 170.928 57.5885C173.69 52.8055 179.806 51.1668 184.588 53.9282ZM205.043 56.5C213.652 61.4706 216.602 72.4792 211.631 81.0885C206.661 89.6977 195.652 92.6475 187.043 87.6769L170.588 78.1769C161.979 73.2064 159.029 62.1977 164 53.5885C168.971 44.9792 179.979 42.0294 188.588 47L205.043 56.5Z" fill="#F64A00" stroke="#1D1D1B" stroke-width="2"/>
<rect x="-2.04904" y="0.549038" width="43" height="12" rx="6" transform="matrix(-0.866025 -0.5 -0.5 0.866025 231.501 85.5753)" fill="#F64A00" stroke="#1D1D1B" stroke-width="3"/>
<path fill-rule="evenodd" clip-rule="evenodd" d="M157.22 38.4282L173.674 47.9282C178.457 50.6896 180.096 56.8055 177.335 61.5885C174.573 66.3714 168.457 68.0101 163.674 65.2487L147.22 55.7487C142.437 52.9873 140.798 46.8714 143.56 42.0885C146.321 37.3055 152.437 35.6668 157.22 38.4282ZM177.674 41C186.284 45.9706 189.233 56.9792 184.263 65.5885C179.292 74.1977 168.284 77.1475 159.674 72.1769L143.22 62.6769C134.611 57.7064 131.661 46.6977 136.631 38.0885C141.602 29.4792 152.611 26.5294 161.22 31.5L177.674 41Z" fill="#F64A00" stroke="#1D1D1B" stroke-width="2"/>
<path fill-rule="evenodd" clip-rule="evenodd" d="M109.588 10.9282L126.043 20.4282C130.826 23.1896 132.465 29.3055 129.703 34.0885C126.942 38.8714 120.826 40.5101 116.043 37.7487L99.5885 28.2487C94.8055 25.4873 93.1668 19.3714 95.9282 14.5885C98.6896 9.80553 104.806 8.16678 109.588 10.9282ZM130.043 13.5C138.652 18.4706 141.602 29.4792 136.631 38.0885C131.661 46.6977 120.652 49.6475 112.043 44.6769L95.5885 35.1769C86.9792 30.2064 84.0294 19.1977 89 10.5885C93.9706 1.97919 104.979 -0.970564 113.588 4L130.043 13.5Z" fill="#F64A00" stroke="#1D1D1B" stroke-width="2"/>
<rect x="-2.04904" y="0.549038" width="43" height="12" rx="6" transform="matrix(-0.866025 -0.5 -0.5 0.866025 156.501 42.5753)" fill="#F64A00" stroke="#1D1D1B" stroke-width="3"/>
<path fill-rule="evenodd" clip-rule="evenodd" d="M77.2199 -10.5718L93.6744 -1.0718C98.4573 1.68963 100.096 7.80553 97.3346 12.5885C94.5732 17.3714 88.4573 19.0101 83.6744 16.2487L67.2199 6.74871C62.437 3.98729 60.7982 -2.12862 63.5596 -6.91154C66.321 -11.6945 72.437 -13.3332 77.2199 -10.5718ZM97.6744 -8C106.284 -3.02944 109.233 7.97919 104.263 16.5885C99.2923 25.1977 88.2836 28.1475 79.6744 23.1769L63.2199 13.6769C54.6106 8.70635 51.6609 -2.30228 56.6314 -10.9115C61.602 -19.5208 72.6106 -22.4706 81.2199 -17.5L97.6744 -8Z" fill="#F64A00" stroke="#1D1D1B" stroke-width="2"/>
<path fill-rule="evenodd" clip-rule="evenodd" d="M29.5885 -38.0718L46.043 -28.5718C50.8259 -25.8104 52.4646 -19.6945 49.7032 -14.9115C46.9418 -10.1286 40.8259 -8.48987 36.043 -11.2513L19.5885 -20.7513C14.8055 -23.5127 13.1668 -29.6286 15.9282 -34.4115C18.6896 -39.1945 24.8055 -40.8332 29.5885 -38.0718ZM50.043 -35.5C58.6522 -30.5294 61.602 -19.5208 56.6314 -10.9115C51.6608 -2.30228 40.6522 0.647477 32.043 -4.32309L15.5885 -13.8231C6.9792 -18.7936 4.02945 -29.8023 9.00001 -38.4115C13.9706 -47.0208 24.9792 -49.9706 33.5885 -45L50.043 -35.5Z" fill="#F64A00" stroke="#1D1D1B" stroke-width="2"/>
<rect x="-2.04904" y="0.549038" width="43" height="12" rx="6" transform="matrix(-0.866025 -0.5 -0.5 0.866025 76.501 -6.42469)" fill="#F64A00" stroke="#1D1D1B" stroke-width="3"/>
</svg>
